<svg version="1.1" id="Layer_1" xmlns="http://www.w3.org/2000/svg" xmlns:xlink="http://www.w3.org/1999/xlink" x="0px" y="0px"
	 width="100%" viewBox="0 0 512 512" enable-background="new 0 0 512 512" xml:space="preserve">
<path fill="#000000" opacity="1.000000" stroke="none" 
	d="
M85.000000,513.000000 
	C77.312424,513.000000 69.624847,513.000000 61.364090,512.641235 
	C54.544399,508.705994 47.304474,506.169342 42.252205,501.342743 
	C30.703176,490.309509 26.182201,475.483185 26.151533,460.009247 
	C25.887764,326.922058 26.036413,193.834106 25.935818,60.746490 
	C25.927097,49.208519 27.386971,38.012657 32.116680,27.535192 
	C35.219105,20.662561 38.729290,13.710897 45.752407,9.732174 
	C51.100739,6.702246 56.579350,3.902278 62.000000,1.000000 
	C69.354256,1.000000 76.708504,1.000000 84.649078,1.370066 
	C97.259880,4.549392 108.065201,10.207374 118.651283,16.280598 
	C142.486435,29.954809 166.222305,43.801941 190.038574,57.509232 
	C202.292389,64.561836 214.673904,71.392700 226.921783,78.455437 
	C241.542633,86.886528 256.033051,95.544258 270.671875,103.943588 
	C283.347412,111.216454 296.190948,118.196014 308.888306,125.431450 
	C323.821533,133.940994 338.659485,142.617523 353.571472,151.164581 
	C368.351837,159.636185 383.207306,167.977020 397.966980,176.484283 
	C414.814606,186.194992 431.516174,196.161224 448.427826,205.758087 
	C459.969818,212.307861 470.894897,219.480392 478.880768,230.380341 
	C486.101410,240.235886 489.788422,251.335419 487.680145,263.333313 
	C484.860535,279.379364 475.124451,291.378326 461.661377,299.904938 
	C447.415833,308.927124 432.588348,317.032471 417.989349,325.493896 
	C403.258331,334.031738 388.513062,342.545319 373.741760,351.013184 
	C361.192291,358.207367 348.577789,365.287994 336.026398,372.478851 
	C318.884399,382.299744 301.779114,392.184692 284.650299,402.028625 
	C270.435181,410.198120 256.201141,418.334595 241.989563,426.510223 
	C226.669296,435.323608 211.381973,444.194336 196.049683,452.986694 
	C181.694107,461.218933 167.285721,469.359070 152.923935,477.580505 
	C138.148453,486.038788 123.559868,494.841095 108.574768,502.908234 
	C101.078148,506.943939 92.880554,509.677490 85.000000,513.000000 
z"/>
</svg>